<svg xmlns="http://www.w3.org/2000/svg" height="512" viewBox="0 0 61.537 62" width="512"  xmlns:v="https://vecta.io/nano"><linearGradient id="A" gradientUnits="userSpaceOnUse" x1="30.769" x2="30.769" y1="62" y2="0"><stop offset="0" stop-color="#9f2fff"/><stop offset="1" stop-color="#0bb1d3"/></linearGradient><path d="M25.769 20v-1h2v1c0 1.103.897 2 2 2h2c1.103 0 2-.897 2-2s-.897-2-2-2h-2c-2.206 0-4-1.794-4-4s1.794-4 4-4V8h2v2c2.206 0 4 1.794 4 4h-2c0-1.103-.897-2-2-2h-2c-1.103 0-2 .897-2 2s.897 2 2 2h2c2.206 0 4 1.794 4 4s-1.794 4-4 4v2h-2v-2c-2.206 0-4-1.794-4-4zm-12-3c0-9.374 7.626-17 17-17s17 7.626 17 17-7.626 17-17 17-17-7.626-17-17zm17 11c6.065 0 11-4.935 11-11s-4.935-11-11-11-11 4.935-11 11 4.934 11 11 11zm-9.861.275c.971.85 2.05 1.573 3.217 2.153l.766-1.848a13.06 13.06 0 0 1-2.569-1.718zm5.062 2.924c1.206.409 2.479.663 3.799.751v-2a12.91 12.91 0 0 1-3.034-.598zm5.799.75c1.32-.088 2.593-.342 3.799-.751l-.765-1.847a12.91 12.91 0 0 1-3.034.598zm5.644-1.521c1.167-.58 2.246-1.303 3.217-2.153l-1.414-1.414c-.782.671-1.643 1.246-2.569 1.718zm4.631-3.567c.85-.971 1.573-2.05 2.153-3.217l-1.848-.766a13.09 13.09 0 0 1-1.718 2.569zm2.923-5.062c.409-1.206.663-2.479.751-3.799h-2a12.91 12.91 0 0 1-.598 3.034zM45.718 16c-.088-1.32-.342-2.593-.751-3.799l-1.847.765A12.91 12.91 0 0 1 43.718 16zm-1.521-5.644c-.58-1.167-1.303-2.246-2.153-3.217L40.63 8.553a13.06 13.06 0 0 1 1.718 2.569zM40.63 5.725c-.971-.85-2.05-1.573-3.217-2.153l-.766 1.848a13.06 13.06 0 0 1 2.569 1.718zm-5.063-2.924c-1.206-.409-2.479-.663-3.799-.751v2a12.91 12.91 0 0 1 3.034.598zm-5.798-.75c-1.32.088-2.593.342-3.799.751l.765 1.847a12.91 12.91 0 0 1 3.034-.598zm-5.645 1.521c-1.167.58-2.246 1.303-3.217 2.153l1.414 1.414c.782-.671 1.643-1.246 2.569-1.718zm-4.631 3.567c-.85.971-1.573 2.05-2.153 3.217l1.848.766a13.09 13.09 0 0 1 1.718-2.569zm-2.923 5.062c-.409 1.206-.663 2.479-.751 3.799h2a12.91 12.91 0 0 1 .598-3.034zM15.819 18c.088 1.32.342 2.593.751 3.799l1.847-.765A12.96 12.96 0 0 1 17.819 18zm1.522 5.644c.58 1.167 1.303 2.246 2.153 3.217l1.414-1.414a13.06 13.06 0 0 1-1.718-2.569zM12.769 59V39c0-1.654 1.346-3 3-3h30c1.654 0 3 1.346 3 3v20c0 1.654-1.346 3-3 3h-30c-1.655 0-3-1.346-3-3zm34 0V48h-32v11a1 1 0 0 0 1 1h30a1 1 0 0 0 1-1zm0-13v-2h-32v2zm-32-7v3h32v-3a1 1 0 0 0-1-1h-30a1 1 0 0 0-1 1zm16 11h14v8h-14zm8 6v-4h-2v4zm4-4h-2v4h2zm-10 4h2v-4h-2zm-16 2h8v-2h-8zm0-4h8v-2h-8zm44.768-6.36L60 46.36l-1.231 1.478V12h-2v38.238l-1 1.2-1-1.2V12h-2v35.838l-1.231-1.478L50 47.64l5.769 6.922zM58.769 0h-2v2h2zm0 8h-2v2h2zm0-4h-2v2h2zm-56 10.162V50h2V11.762l1-1.2 1 1.2V50h2V14.162L10 15.64l1.537-1.28-5.768-6.922L0 14.36l1.537 1.28zm2 37.838h-2v2h2zm-2 10h2v-2h-2zm2-6h-2v2h2z" fill="url(#A)"/></svg>