<svg xmlns="http://www.w3.org/2000/svg" viewBox="0 0 512 512"  xmlns:v="https://vecta.io/nano"><circle cx="256" cy="256" fill="#bc2a8d" r="238.2"/><path d="M385.1 258v54.7c0 30.9-15 52.3-41.9 66.2-11 5.7-22.9 8.2-35.3 8.2-35.1 0-70.3.6-105.4-.2-28.2-.6-50.9-13-66.1-37.3-6.3-10.2-9.4-21.4-9.5-33.3V200.7c.2-26.4 13.1-45.9 35-59.7 13-8.1 27.4-11.8 42.7-11.9h102.6c26.4.2 48.3 10.5 64.5 31.7 8.9 11.7 13.3 25.3 13.3 40.1l.1 57.1zm-19.2.2v-57.5c0-10.4-3.1-19.9-9.2-28.1-11.9-16.1-28.4-24-48.1-24.2l-104.1-.1c-10.8 0-21 2.5-30.3 7.9-18 10.4-28 25.6-27.9 46.8v112.2c0 10.5 3.1 20.1 9.3 28.4 11.9 16.1 28.4 23.9 48.1 24.1l104.6.1c7.9 0 15.6-1.7 23-4.7 19.6-7.9 35.3-26.2 34.7-50.6-.5-18.1-.1-36.2-.1-54.3zM256 313.1c-33.7-.1-60.6-27-60.5-60.5.1-32.7 27.5-59.3 60.9-59.2s60.5 27.1 60.4 60.2c0 32.9-27.2 59.6-60.8 59.5zm.5-100.5c-22.9 0-41.4 18.1-41.6 40.5 0 22.3 18.5 40.6 41.1 40.7 22.9 0 41.6-18.1 41.7-40.4 0-22.4-18.5-40.8-41.2-40.8zm80.2-24.1c0 7.3-5.8 13.3-12.9 13.2-7 0-12.7-6.1-12.6-13.4 0-7.2 5.8-13.1 12.8-13.1s12.7 6 12.7 13.3z" fill="#fff"/></svg>