<svg xmlns="http://www.w3.org/2000/svg" viewBox="0 0 512 512" fill="#fff" width="20" height="15"  xmlns:v="https://vecta.io/nano"><path d="M485.743 85.333H26.257C11.815 85.333 0 97.148 0 111.59V400.4c0 14.44 11.815 26.257 26.257 26.257h459.487c14.44 0 26.257-11.815 26.257-26.257V111.59c-.001-14.44-11.816-26.256-26.258-26.256zm-9.853 19.69L271.104 258.626c-3.682 2.802-9.334 4.555-15.105 4.53-5.77.026-11.42-1.727-15.104-4.53L36.11 105.024H475.9zM366.5 268.76l111.6 137.847c.112.138.25.243.368.368H33.542c.118-.13.256-.23.368-.368L145.5 268.76a9.85 9.85 0 0 0-1.464-13.851c-4.227-3.42-10.424-2.77-13.844 1.457l-110.5 136.5V117.332l209.394 157.046c7.87 5.862 17.447 8.442 26.912 8.468 9.452-.02 19.036-2.6 26.912-8.468l209.394-157.046v275.534l-110.497-136.5c-3.42-4.227-9.623-4.877-13.844-1.457-4.234 3.42-4.884 9.624-1.463 13.85z"/></svg>