<svg xmlns="http://www.w3.org/2000/svg" height="512" viewBox="0 0 509.275 509.275" width="512"  xmlns:v="https://vecta.io/nano"><path d="M479.637 314.485V131.741l-360-65V44.275C119.637 19.862 99.776 0 75.363 0H29.637v30h45.725c7.871 0 14.275 6.404 14.275 14.275V321.28c0 31.979 26.016 57.995 57.995 57.995h12.005v34.187a49.7 49.7 0 0 0-20-4.187c-27.57 0-50 22.43-50 50s22.43 50 50 50c25.883 0 47.233-19.769 49.749-45h.251v-85h260v34.187a49.7 49.7 0 0 0-20-4.187c-27.57 0-50 22.43-50 50s22.43 50 50 50c25.883 0 47.233-19.769 49.749-45h.251v-115H147.632c-15.437 0-27.995-12.558-27.995-27.995v-11.796zm-340 164.79c-11.028 0-20-8.972-20-20s8.972-20 20-20 20 8.972 20 20-8.972 20-20 20zm290 0c-11.028 0-20-8.972-20-20s8.972-20 20-20 20 8.972 20 20-8.972 20-20 20zm-160-197.71l-60-.833V113.476l60 10.833zm30-151.839l55 9.931v143.089l-55-.764zm-120 150.589l-60-.833V97.226l60 10.833zm270 3.75l-65-.903V145.073l65 11.736z"/></svg>