<svg xmlns="http://www.w3.org/2000/svg" viewBox="0 0 64 64" width="512" height="512"  xmlns:v="https://vecta.io/nano"><linearGradient id="A" gradientUnits="userSpaceOnUse" x1="32" y1="63" x2="32" y2="1"><stop offset="0" stop-color="#9f2fff"/><stop offset="1" stop-color="#0bb1d3"/></linearGradient><path d="M13 57h12v2H13v-2zm5-22a1 1 0 0 1-1-1h-2c0 1.302.839 2.402 2 2.816V38h2v-1.184c1.161-.414 2-1.514 2-2.816 0-1.654-1.346-3-3-3a1 1 0 1 1 0-2 1 1 0 0 1 1 1h2c0-1.302-.839-2.402-2-2.816V26h-2v1.184c-1.161.414-2 1.514-2 2.816 0 1.654 1.346 3 3 3a1 1 0 1 1 0 2zm0-12c-2.011 0-3.917.655-5.514 1.896l1.228 1.58A6.92 6.92 0 0 1 18 25a7.01 7.01 0 0 1 7 7 6.93 6.93 0 0 1-1.475 4.287l1.579 1.227A8.91 8.91 0 0 0 27 32c0-4.963-4.038-9-9-9zm-5.524 4.714l-1.579-1.229C9.656 28.081 9 29.988 9 32c0 4.963 4.038 9 9 9 2.011 0 3.917-.655 5.514-1.896l-1.227-1.58C21.045 38.49 19.562 39 18 39a7.01 7.01 0 0 1-7-7 6.92 6.92 0 0 1 1.476-4.286zM63 22v20c0 1.654-1.346 3-3 3H37v13c0 2.757-2.243 5-5 5H6c-2.757 0-5-2.243-5-5V6c0-2.757 2.243-5 5-5h26c2.757 0 5 2.243 5 5v13h23c1.654 0 3 1.346 3 3zm-3-1H30a1 1 0 0 0-1 1v3h32v-3a1 1 0 0 0-1-1zM27 32v-6.295C24.936 22.759 21.599 21 18 21c-6.065 0-11 4.935-11 11s4.935 11 11 11c3.599 0 6.936-1.759 9-4.705V32zM3 6v1h32V6c0-1.654-1.346-3-3-3H6C4.346 3 3 4.346 3 6zm32 52v-3H3v3c0 1.654 1.346 3 3 3h26c1.654 0 3-1.346 3-3zm0-13h-5c-1.654 0-3-1.346-3-3v-.647C24.603 43.664 21.403 45 18 45A13.02 13.02 0 0 1 5 32a13.02 13.02 0 0 1 13-13c3.403 0 6.603 1.336 9 3.647V22c0-1.654 1.346-3 3-3h5V9H3v44h32v-8zm26-3V27H29v15a1 1 0 0 0 1 1h30a1 1 0 0 0 1-1zm-2-6c0 2.757-2.243 5-5 5-.915 0-1.762-.265-2.5-.696-.738.431-1.585.696-2.5.696-2.757 0-5-2.243-5-5s2.243-5 5-5c.915 0 1.762.265 2.5.696.738-.431 1.585-.696 2.5-.696 2.757 0 5 2.243 5 5zm-7 0c0-.611-.185-1.178-.5-1.652-.315.474-.5 1.041-.5 1.652s.185 1.178.5 1.652c.315-.474.5-1.041.5-1.652zm-3 3c.315 0 .614-.062.899-.153C49.336 38.038 49 37.059 49 36s.336-2.038.899-2.847C49.614 33.062 49.315 33 49 33c-1.654 0-3 1.346-3 3s1.346 3 3 3zm8-3c0-1.654-1.346-3-3-3-.315 0-.614.062-.899.153.563.809.899 1.788.899 2.847s-.336 2.038-.899 2.847c.285.091.584.153.899.153 1.654 0 3-1.346 3-3zm-26 4h2v-2h-2v2zm4 0h2v-2h-2v2zm4 0h2v-2h-2v2zm14 7H43v2h10v-2zm-14 2h2v-2h-2v2zm6 4h14.131l-.963 1.445 1.664 1.109L62.869 51H45v2zm4-36h10v-2H49v2zm12 0h2v-2h-2v2zM45.832 9.555l-1.664-1.109L41.131 13H58v-2H44.869l.963-1.445z" fill="url(#A)"/></svg>