<svg xmlns="http://www.w3.org/2000/svg" height="1024" preserveAspectRatio="xMidYMid meet" width="1024"  fill="#0099e5" xmlns:v="https://vecta.io/nano"><path d="M482 80.1c-103.6 7.7-198.1 50.3-272.3 122.8-97.6 95.2-144.4 230-127.1 365.4 21.6 169.3 141 310.3 305 360.2 126.8 38.6 267.9 15.7 375.4-60.8 132.1-94.1 200.8-250.2 180.4-410-21.6-169.3-141-310.3-305-360.2C589.6 82.6 532.7 76.3 482 80.1zm299.4 155.3c4.9 2.8 7.9 7.4 8.9 13.6.5 2.4-14.6 95-46.8 287.9l-50.2 288.9c-3.5 5.7-9.7 9.2-16.2 9.2-3.7 0-22.5-7.2-96.8-36.9l-92.2-36.8-19.2 32.1c-10.5 17.6-20.6 33.6-22.3 35.5-3.9 4.2-8.3 6.1-14.1 6.1-6.2 0-10.6-2-14.4-6.6-1.7-2.2-18.6-30.9-37.5-63.9l-34.3-60-75.4-30.1c-69.4-27.8-75.7-30.5-78.6-33.9-5.9-6.8-6.4-18.4-1-24.4 2.8-3 571.2-382.1 574.7-383.2 4.2-1.4 10.6-.3 15.4 2.5zM555.8 497.2L381.1 685.5c0 .5 11.5 21.1 25.6 45.6l25.8 44.7 2.1-3.2c1.2-1.7 65.8-102.6 143.6-224.1l147.1-229.8c3.1-4.8 5.5-8.7 5.3-8.7-.1 0-78.8 84.3-174.8 187.2zM464 479L249.5 622.7c0 .4 25.3 11 56.3 23.4l58 24.1c1.6 1.4 10-7.4 113.4-118.1L678.8 336c-.2.1-96.8 64.4-214.8 143zm149.3 53.8L491.1 722.5l4.7.9c2.6.4 40.9 15.4 85.1 33.3l80.5 32.1c.4-.5 74.6-445.2 74.3-445.4-.1-.1-55.2 85.1-122.4 189.4z"/></svg>