<svg xmlns="http://www.w3.org/2000/svg" viewBox="0 0 512 512"  xmlns:v="https://vecta.io/nano"><path d="M119.467 337.067c-28.237 0-51.2 22.963-51.2 51.2s22.963 51.2 51.2 51.2 51.2-22.963 51.2-51.2-22.964-51.2-51.2-51.2zm0 85.333c-18.825 0-34.133-15.309-34.133-34.133s15.309-34.133 34.133-34.133 34.133 15.309 34.133 34.133-15.309 34.133-34.133 34.133zM409.6 337.067c-28.237 0-51.2 22.963-51.2 51.2s22.963 51.2 51.2 51.2 51.2-22.963 51.2-51.2-22.963-51.2-51.2-51.2zm0 85.333c-18.825 0-34.133-15.309-34.133-34.133s15.309-34.133 34.133-34.133 34.133 15.309 34.133 34.133S428.425 422.4 409.6 422.4z"/><path d="M510.643 289.784l-76.8-119.467c-1.57-2.441-4.275-3.917-7.177-3.917H332.8c-4.719 0-8.533 3.823-8.533 8.533v213.333c0 4.719 3.814 8.533 8.533 8.533h34.133v-17.067h-25.6V183.467h80.674l72.926 113.442v82.825h-42.667V396.8h51.2c4.719 0 8.533-3.814 8.533-8.533V294.4a8.51 8.51 0 0 0-1.356-4.616z"/><path d="M375.467 277.333V217.6h68.267v-17.067h-76.8c-4.719 0-8.533 3.823-8.533 8.533v76.8c0 4.719 3.814 8.533 8.533 8.533h128v-17.067H375.467zM332.8 106.667H8.533A8.54 8.54 0 0 0 0 115.2v273.067c0 4.719 3.823 8.533 8.533 8.533H76.8v-17.067H17.067v-256h307.2v256H162.133V396.8H332.8c4.719 0 8.533-3.814 8.533-8.533V115.2c0-4.71-3.814-8.533-8.533-8.533z"/><path d="M8.533 345.6h51.2v17.067h-51.2zm170.667 0h145.067v17.067H179.2zm290.133 0h34.133v17.067h-34.133zm-435.2-204.8H332.8v17.067H34.133zm76.8 238.933H128V396.8h-17.067zm290.134 0h17.067V396.8h-17.067zM34.133 72.533H153.6V89.6H34.133zM0 72.533h17.067V89.6H0z"/></svg>