<svg xmlns="http://www.w3.org/2000/svg" height="100" width="100"  fill="#c12025" xmlns:v="https://vecta.io/nano"><path d="M50.872 44.545l-2.442-1.464-2.148-1.562c-.401-.273-1.282-.541-1.282-.803v2.148l-.115 12.423.01 3.825 3.61-1.814 4.909-3.102 2.46-1.417c.714-.485 3.481-2.812 3.577-2.753l-3.849-2.289c-1.704-.884-3.07-2.237-4.73-3.192zM50 3.84C24.506 3.84 3.84 24.506 3.84 50S24.506 96.16 50 96.16 96.16 75.494 96.16 50 75.494 3.84 50 3.84zm25.354 56.174c-.477 2.246-1.078 4.595-2.618 6.369-1.671 1.922-4.549 1.416-6.848 1.582-5.589.404-11.166.026-16.759.173-2.299.061-4.566.008-6.859-.106-2.282-.114-4.669.13-6.95-.054-1.384-.113-2.777-.116-4.156-.286-1.106-.136-2.778-.297-3.615-1.133-.407-.406-.54-1.037-.893-1.511l-.509-.888c-2.191-4.672-2.147-9.816-2.156-14.92-.005-1.896.225-3.782.174-5.68-.033-1.225.523-2.385.599-3.618s.311-2.427.909-3.5c1.164-2.087 1.753-3.067 3.916-3.952 1.083-.444 3.101-.568 4.261-.546 1.381.024 2.765.018 4.144.002l8.407-.108c2.438.007 4.907.019 7.339.171s4.88-.083 7.322-.021c2.012.051 4.028.047 6.036.195 1.503.111 3.255.294 4.561 1.129.784.501 1.656 1.17 2.009 1.992 1.026 2.389 1.88 4.808 2.024 7.422.148 2.678.182 5.36.255 8.04l.042 1.387c.089 2.627-.092 5.288-.635 7.861z"/></svg>