<svg xmlns="http://www.w3.org/2000/svg" height="512" viewBox="0 0 64 64" width="512"  xmlns:v="https://vecta.io/nano"><linearGradient id="A" gradientUnits="userSpaceOnUse" x1="32" x2="32" y1="63" y2="1"><stop offset="0" stop-color="#9f2fff"/><stop offset="1" stop-color="#0bb1d3"/></linearGradient><path d="M27 55h2v2h-2zM7 57h2v-2H7zm16-1c0 1.654-1.346 3-3 3h-4c-1.654 0-3-1.346-3-3s1.346-3 3-3h4c1.654 0 3 1.346 3 3zm-2 0a1 1 0 0 0-1-1h-4a1 1 0 1 0 0 2h4a1 1 0 0 0 1-1zm-8-32c0-2.757 2.243-5 5-5s5 2.243 5 5-2.243 5-5 5-5-2.243-5-5zm2 0c0 1.654 1.346 3 3 3s3-1.346 3-3-1.346-3-3-3-3 1.346-3 3zm-8 0c0-6.065 4.935-11 11-11s11 4.935 11 11c0 5.2-3.073 10.302-5.869 13.869C25.544 38.774 27 40.28 27 42c0 2.851-3.869 5-9 5s-9-2.149-9-5c0-1.72 1.456-3.226 3.869-4.131C10.073 34.302 7 29.2 7 24zm14.771 15.518c-1.642 1.896-2.955 3.092-3.103 3.225l-.668.603-.669-.603c-.148-.133-1.461-1.329-3.103-3.225C12.304 40.087 11 41.067 11 42c0 1.416 2.994 3 7 3s7-1.584 7-3c0-.933-1.304-1.913-3.229-2.482zM9 24c0 7.133 6.809 14.447 9 16.615 2.19-2.17 9-9.493 9-16.615 0-4.963-4.038-9-9-9s-9 4.037-9 9zm44 32c0 1.654-1.346 3-3 3s-3-1.346-3-3 1.346-3 3-3 3 1.346 3 3zm-2 0a1 1 0 1 0-2 0 1 1 0 1 0 2 0zm12-5v2c0 1.103-.897 2-2 2h-4.08c.047.328.08.66.08 1a7.01 7.01 0 0 1-7 7 7.01 7.01 0 0 1-7-7c0-.34.033-.672.08-1H35v3c0 2.757-2.243 5-5 5H6c-2.757 0-5-2.243-5-5V6c0-2.757 2.243-5 5-5h24c2.757 0 5 2.243 5 5v9h10c1.103 0 2 .897 2 2v2c0 1.103-.897 2-2 2h-2v6h11.93c1.005 0 1.938.499 2.496 1.336l3.07 4.605c.33.494.504 1.069.504 1.664V49c1.103 0 2 .897 2 2zm-4-2v-2h-2v2zm-.167-14.948L58.131 33H47v6h12v-4.395c0-.198-.058-.389-.167-.553zM43 29v20h12v-4h4v-4H47c-1.103 0-2-.897-2-2v-6c0-1.103.897-2 2-2h9.798l-1.036-1.555c-.186-.279-.497-.445-.832-.445zm-2-8h-6v28h2V23h2v26h2zm-8-10H3v38h30zm2 6v2h10v-2zM13 5h10V3H13zM3 6v3h30V6c0-1.654-1.346-3-3-3h-5v2c0 1.103-.897 2-2 2H13c-1.103 0-2-.897-2-2V3H6C4.346 3 3 4.346 3 6zm30 52v-7H3v7c0 1.654 1.346 3 3 3h24c1.654 0 3-1.346 3-3zm10.685-5c.357-.749.839-1.426 1.425-2H35v2zM55 56c0-2.757-2.243-5-5-5s-5 2.243-5 5 2.243 5 5 5 5-2.243 5-5zm6-5h-6.111c.587.574 1.068 1.251 1.425 2H61z" fill="url(#A)"/></svg>