<svg xmlns="http://www.w3.org/2000/svg" viewBox="0 0 112.196 112.196"><g fill="#dc4e41"><circle cx="56.098" cy="56.097" r="56.098"/><path d="M19.531 58.608c-.199 9.652 6.449 18.863 15.594 21.867 8.614 2.894 19.205.729 24.937-6.648 4.185-5.169 5.136-12.06 4.683-18.498l-22.12-.033.011 7.874c4.417.122 8.835.066 13.252.155-1.115 3.821-3.655 7.377-7.51 8.757-7.443 3.28-16.94-1.005-19.282-8.813-2.827-7.477 1.801-16.5 9.442-18.675 4.738-1.667 9.619.21 13.673 2.673 2.054-1.922 3.976-3.976 5.864-6.052-4.606-3.854-10.525-6.217-16.61-5.698-11.939.142-22.387 11.164-21.934 23.091zm59.571-9.94l-.056 6.604-6.604.044v6.582l6.604.045.044 6.604h6.582l.045-6.615 6.604-.033v-6.582l-6.604-.044-.045-6.604-6.57-.001z"/></g><path d="M19.531 58.608c-.453-11.927 9.994-22.949 21.933-23.092 6.085-.519 12.005 1.844 16.61 5.698-1.889 2.077-3.811 4.13-5.864 6.052-4.054-2.463-8.935-4.34-13.673-2.673-7.642 2.176-12.27 11.199-9.442 18.675 2.342 7.808 11.839 12.093 19.282 8.813 3.854-1.38 6.395-4.936 7.51-8.757l-13.252-.155-.011-7.874 22.12.033c.453 6.439-.497 13.33-4.683 18.498-5.732 7.377-16.322 9.542-24.937 6.648-9.143-3.003-15.792-12.214-15.593-21.866zm59.571-9.94h6.57l.045 6.604 6.604.044v6.582l-6.604.033-.045 6.615c-2.197-.011-4.396 0-6.582 0l-.044-6.604-6.604-.045v-6.582l6.604-.044.056-6.603z" fill="#fff"/></svg>