<svg xmlns="http://www.w3.org/2000/svg" height="512" width="512"><path d="M152.23 92.62a7.52 7.52 0 007.515-7.515V37.573c0-12.431 10.113-22.544 22.544-22.544H396.03c12.431 0 22.544 10.113 22.544 22.544v203.394a7.515 7.515 0 1015.03 0V37.573C433.604 16.855 416.749 0 396.03 0H182.289c-20.718 0-37.573 16.855-37.573 37.573v47.532a7.514 7.514 0 007.514 7.515zM85.911 398.728a7.515 7.515 0 007.515-7.515v-30.436l31.559-12.285a7.516 7.516 0 004.789-7.003v-53.574a7.515 7.515 0 00-7.515-7.515H100.94c-4.144 0-7.515-3.371-7.515-7.515v-60.107l62.395-33.936a7.513 7.513 0 003.924-6.601v-57.077a7.52 7.52 0 00-7.515-7.515 7.52 7.52 0 00-7.515 7.515v52.61L82.32 201.71a7.513 7.513 0 00-3.924 6.601v64.574c0 12.431 10.113 22.544 22.544 22.544h13.804v40.921l-31.559 12.285a7.516 7.516 0 00-4.789 7.003v35.575a7.515 7.515 0 007.515 7.515zm347.693-127.702a7.515 7.515 0 10-15.03 0v178.683c-53.093-16.025-107.732-24.15-162.574-24.15s-109.482 8.125-162.574 24.15v-28.437a7.515 7.515 0 00-7.515-7.515 7.52 7.52 0 00-7.515 7.515v53.155c0 20.718 16.855 37.573 37.573 37.573H396.03c20.718 0 37.573-16.855 37.573-37.573V271.026zM396.03 496.971H115.97c-12.431 0-22.544-10.113-22.544-22.544v-8.98c53.046-16.48 107.709-24.858 162.574-24.858s109.528 8.378 162.574 24.858v8.98c0 12.431-10.113 22.544-22.544 22.544zM211.303 52.309c-12.431 0-22.544 10.113-22.544 22.544v50.564c0 12.431 10.113 22.544 22.544 22.544h155.712c12.43 0 22.544-10.113 22.544-22.544V74.853c0-12.431-10.114-22.544-22.544-22.544zm14.61 80.623h-14.61c-4.144 0-7.515-3.371-7.515-7.515V74.853c0-4.144 3.371-7.515 7.515-7.515h14.61zm37.154 0h-22.125V67.338h22.125zm37.155 0h-22.125V67.338h22.125zm37.155 0h-22.125V67.338h22.125zm37.153-58.079v50.564c0 4.143-3.371 7.515-7.515 7.515h-14.61V67.338h14.61c4.145 0 7.515 3.371 7.515 7.515z"/></svg>