<svg xmlns="http://www.w3.org/2000/svg" viewBox="0 0 512 512"  xmlns:v="https://vecta.io/nano"><circle cx="256" cy="256" fill="#fe4703" r="238.2"/><path d="M198 384.4c-9-3.6-32.3-12.3-40.1-16.9-17.4-10.4-32-23.8-41.2-42.1-5.9-11.6-7.9-24.2-6.5-37.3.3-2.5-.2-4-2.3-5.9-16.6-13-19.6-35.7-7-52.2 12-15.5 35.1-18.8 51.4-6.8 1.7 1.2 2.5 1.4 4.2.3 28.1-16.8 58.7-24.1 91.2-25.3 3.3-.2 4.3-1.2 5.3-4l20.2-63.2c2-6.1 3.9-7.3 10.2-5.9l50.8 12.1c3 .8 4.5.5 6.1-2.5 6.4-11.6 19.9-17.2 33.2-14.3 12.9 3 22.4 14.3 23.1 27.3.8 14.1-7 26.2-19.6 30.9-18.5 6.8-38.5-5.4-40.8-24.8-.3-3-1.6-3.9-4-4.5l-44.9-10.4c-2.2-.6-3.6-.6-4.3 2.2-2.8 9.6-5.9 19.1-8.9 28.6l-9.2 28.6c10.1 1.1 20 1.7 29.8 3.6 21.3 4 41.3 10.9 59.8 22.4 2.5 1.6 3.6.5 5.1-.8 12.7-9.3 30.1-9.8 43-1.1 21.3 14.4 21.7 45.7.8 60.7-2.2 1.6-3.3 3-3 5.9 2 19.6-4.3 36.7-16.5 51.9-13.2 16.6-30.4 27.6-49.5 36.2-1.7.8-3.6 1.6-6.1 2.6m-62.9-169.1c-31.8-.2-53 3.1-73.3 10.2-21.4 7.5-40.7 18.3-55.3 36.2-21.7 26.6-18.5 59.3 6.8 83.7 13.2 12.9 28.9 21.7 46.3 27.8 43 15.1 86.2 15.2 129.2.6 23.8-7.9 44.6-20.3 58.9-41.6 9.6-14.1 13-29.8 8.4-46.6-6.1-21.7-21.3-36.2-39.8-47.2-28-16.8-59-22.8-81.2-23.1zm63 168.9c-12.7 3.6-42.1 11-55.4 12.1-25.5 2.2-50.5-.2-75-7.3m168.5-216.7c10.2 0 18-7.8 18-17.9 0-9.9-8.1-17.9-18-17.9s-18 8.1-18 17.9c-.1 10.1 8 17.9 18 17.9zm1.2 65.5c12.7 10.7 23.3 23.1 29.2 39 10.9-9.5 12.6-23.3 4.2-34.2-7.6-10.2-22.4-12.4-33.4-4.8zm-253.6 38c6.4-15.8 16.8-28.1 29.4-38.5-9.5-7-23.5-5.3-31.4 3.7-9.2 10.6-8.6 24.1 2 34.8z" fill="#fafafa"/><path d="M202.9 296.2c13.1-.2 24.1-11.2 24-24.3-.2-12.9-11.1-23.6-24-23.8-13.1-.2-24.1 10.9-24.1 24.1 0 13.1 10.9 24 24.1 24zm104.4 0c13.1-.2 24.1-11.1 24.1-24.1S320 248 307 248.3c-12.9.2-23.6 11.1-23.6 24.1-.2 13.1 10.5 23.8 23.9 23.8zm-52.4 61.3c6.8-.2 13.5-.2 20.2-1.3 12.7-2 24.6-5.6 34.4-14.5 4-3.8 4.6-7.4 1.7-10.6-3-3.1-6.3-3-10.4.7-4.5 4-9.6 6.8-15.2 8.6-12.2 3.8-24.8 4.8-37.5 3.8-14.5-.8-28.7-2.8-40-13.7-2.8-2.6-6.3-2.3-8.8.5-2.6 2.8-2.8 6.3.2 9.3 4.1 4.3 8.9 7.8 14.4 10.1 12.8 5.8 26.8 7.1 41 7.1z" fill="none" stroke="#fafafa" stroke-miterlimit="10" stroke-width="10"/></svg>