<svg xmlns="http://www.w3.org/2000/svg" viewBox="0 0 512 512"  xmlns:v="https://vecta.io/nano"><circle cx="256" cy="256" fill="#b00" r="238.2"/><g fill="none" stroke="#fafafa" stroke-miterlimit="10" stroke-width="15"><path d="M255.4 364.6c-33.5.1-67-.3-100.4-2.1-10.8-.7-21.7-1.5-31.6-6.9-6.6-3.6-11.7-8.5-15-15.6-5.4-11.7-7.1-24-8.1-36.6-2.2-25.9-2.2-51.9-1.1-77.8.5-13.7 1-27.7 4.3-41.2 1.2-5.2 3-10.4 5.5-15.4 5.8-11.5 15.8-17.3 28-19.6 10.2-2.1 20.6-1.9 31-2.3 35.1-1.5 70.4-2.2 105.5-1.8 27 .3 54.2 1 81.4 2.3 8.4.4 16.7.5 24.7 3.6 10.8 4 18.8 10.8 23.2 21.8 4.3 10.6 5.9 21.5 6.7 32.8 2.5 30.6 2.5 61.1.5 91.6-.7 10.3-1.4 20.6-4.1 30.7-6 23.2-20.6 32.4-42 33.7-22.8 1.5-45.5 2.3-68.3 2.6-13.3.4-26.7.2-40.2.2zm-32.9-64.2l91-49.8-91-49.8v99.6z"/><path d="M222.5 300.4v-99.6l91 49.8-91 49.8z"/></g></svg>